<svg width="134" height="45" viewBox="0 0 134 45" fill="none" xmlns="http://www.w3.org/2000/svg">
<path d="M78.4621 17.1695V44.3109H72.3372V40.8039C71.2736 42.0915 69.9525 43.0572 68.3741 43.701C66.8301 44.3448 65.1144 44.6667 63.2272 44.6667C60.5508 44.6667 58.149 44.0906 56.0216 42.9386C53.9285 41.7865 52.2815 40.16 51.0806 38.0592C49.9139 35.9584 49.3306 33.5187 49.3306 30.7402C49.3306 27.9617 49.9139 25.539 51.0806 23.472C52.2815 21.3712 53.9285 19.7447 56.0216 18.5927C58.149 17.4406 60.5508 16.8646 63.2272 16.8646C65.0115 16.8646 66.6413 17.1695 68.1168 17.7795C69.6265 18.3894 70.9304 19.2873 72.0284 20.4733V17.1695H78.4621ZM63.9478 39.2282C66.3154 39.2282 68.2712 38.4489 69.8153 36.8902C71.3593 35.3315 72.1314 33.2815 72.1314 30.7402C72.1314 28.1989 71.3593 26.1489 69.8153 24.5902C68.2712 23.0315 66.3154 22.2522 63.9478 22.2522C61.5802 22.2522 59.6244 23.0315 58.0803 24.5902C56.5706 26.1489 55.8157 28.1989 55.8157 30.7402C55.8157 33.2815 56.5706 35.3315 58.0803 36.8902C59.6244 38.4489 61.5802 39.2282 63.9478 39.2282Z" fill="white"/>
<path d="M87.4223 21.134C89.2752 18.2877 92.5349 16.8646 97.2014 16.8646V22.9129C96.6524 22.8113 96.1549 22.7604 95.7088 22.7604C93.204 22.7604 91.2482 23.489 89.8414 24.946C88.4345 26.3691 87.7311 28.4361 87.7311 31.1468V44.3109H81.2975V17.1695H87.4223V21.134Z" fill="white"/>
<path d="M125.157 17.1695V44.3109H119.032V40.8039C117.969 42.0915 116.648 43.0572 115.069 43.701C113.525 44.3448 111.809 44.6667 109.922 44.6667C107.246 44.6667 104.844 44.0906 102.717 42.9386C100.624 41.7865 98.9766 40.16 97.7756 38.0592C96.609 35.9584 96.0257 33.5187 96.0257 30.7402C96.0257 27.9617 96.609 25.539 97.7756 23.472C98.9766 21.3712 100.624 19.7447 102.717 18.5927C104.844 17.4406 107.246 16.8646 109.922 16.8646C111.707 16.8646 113.336 17.1695 114.812 17.7795C116.322 18.3894 117.625 19.2873 118.723 20.4733V17.1695H125.157ZM110.643 39.2282C113.01 39.2282 114.966 38.4489 116.51 36.8902C118.054 35.3315 118.826 33.2815 118.826 30.7402C118.826 28.1989 118.054 26.1489 116.51 24.5902C114.966 23.0315 113.01 22.2522 110.643 22.2522C108.275 22.2522 106.319 23.0315 104.775 24.5902C103.266 26.1489 102.511 28.1989 102.511 30.7402C102.511 33.2815 103.266 35.3315 104.775 36.8902C106.319 38.4489 108.275 39.2282 110.643 39.2282Z" fill="white"/>
<path d="M14.8745 44.6667C12.0266 44.6667 9.47029 44.0737 7.20566 42.8877C4.94102 41.7018 3.17392 40.0584 1.90435 37.9576C0.634784 35.8229 0 33.4171 0 30.7402C0 28.0633 0.634784 25.6745 1.90435 23.5737C3.17392 21.4728 4.92386 19.8295 7.15419 18.6435C9.41882 17.4576 11.9923 16.8646 14.8745 16.8646C17.5852 16.8646 19.9528 17.4067 21.9772 18.491C24.036 19.5753 25.5801 21.134 26.6095 23.1671L21.6684 26.0133C20.8792 24.7596 19.8842 23.8278 18.6832 23.2179C17.5166 22.5741 16.2299 22.2522 14.8231 22.2522C12.4212 22.2522 10.431 23.0315 8.85266 24.5902C7.27428 26.115 6.48509 28.165 6.48509 30.7402C6.48509 33.3154 7.25712 35.3824 8.80119 36.941C10.3796 38.4658 12.3869 39.2282 14.8231 39.2282C16.2299 39.2282 17.5166 38.9233 18.6832 38.3134C19.8842 37.6696 20.8792 36.7208 21.6684 35.4671L26.6095 38.3134C25.5458 40.3464 23.9845 41.922 21.9258 43.0402C19.9013 44.1245 17.5509 44.6667 14.8745 44.6667Z" fill="white"/>
<path d="M35.1029 19.5809C37.0129 17.9429 41.3103 13.5502 42.3659 9.95164C44.6277 2.283 35.882 9.28157 35.1029 19.5809ZM39.0234 37.2262C42.5166 37.797 47.3167 33.3547 49.4278 28.813C50.81 25.8597 56.3138 27.8203 54.9315 30.9225C51.1367 39.4598 43.4968 45.3664 36.8872 44.2C28.2672 42.7109 26.8096 30.5255 27.1614 23.8991C27.4881 18.2159 29.1216 11.9867 32.7154 6.10491C41.0339 -7.54478 55.9116 4.09468 46.1858 17.5458C43.1198 21.7896 39.3501 25.3882 34.4746 27.8203C34.2233 30.6744 35.5804 36.6802 39.0234 37.2262Z" fill="white"/>
<path d="M131.035 38.464C131.591 38.464 132.094 38.5915 132.543 38.8466C132.998 39.1016 133.354 39.4537 133.613 39.9028C133.871 40.3464 134 40.8399 134 41.3833C134 41.9267 133.868 42.4257 133.604 42.8804C133.34 43.3295 132.981 43.6843 132.526 43.9449C132.071 44.2055 131.569 44.3358 131.019 44.3358C130.468 44.3358 129.966 44.2055 129.511 43.9449C129.062 43.6843 128.705 43.3295 128.441 42.8804C128.183 42.4312 128.054 41.9378 128.054 41.3999C128.054 40.8621 128.183 40.3686 128.441 39.9195C128.705 39.4704 129.065 39.1155 129.519 38.8549C129.974 38.5943 130.48 38.464 131.035 38.464ZM131.019 43.9616C131.501 43.9616 131.939 43.8479 132.332 43.6206C132.725 43.3932 133.034 43.0827 133.259 42.6891C133.489 42.2954 133.604 41.8601 133.604 41.3833C133.604 40.9064 133.492 40.4739 133.267 40.0858C133.048 39.6977 132.742 39.3927 132.349 39.1709C131.962 38.9492 131.524 38.8383 131.035 38.8383C130.553 38.8383 130.112 38.9519 129.713 39.1793C129.32 39.4066 129.011 39.7171 128.787 40.1108C128.562 40.4989 128.45 40.9286 128.45 41.3999C128.45 41.8712 128.562 42.3037 128.787 42.6974C129.011 43.0855 129.32 43.3932 129.713 43.6206C130.106 43.8479 130.541 43.9616 131.019 43.9616ZM132.543 40.8676C132.543 41.1171 132.481 41.3306 132.358 41.508C132.234 41.6855 132.06 41.813 131.835 41.8906L132.602 43.0633H132.021L131.322 41.9987H130.404V43.0633H129.831V39.7365H131.179C131.6 39.7365 131.931 39.8391 132.172 40.0442C132.419 40.2494 132.543 40.5238 132.543 40.8676ZM131.136 41.533C131.406 41.533 131.614 41.4748 131.76 41.3583C131.911 41.2419 131.987 41.0783 131.987 40.8676C131.987 40.6569 131.911 40.4961 131.76 40.3852C131.614 40.2688 131.406 40.2106 131.136 40.2106H130.395V41.533H131.136Z" fill="white"/>
</svg>
