<svg width="2000" height="2000" viewBox="0 0 2000 2000" fill="none" xmlns="http://www.w3.org/2000/svg">
<rect width="2000" height="2000" fill="url(#paint0_linear_33_822)"/>
<path d="M1094.16 957.61V1183.04H1044.11V1153.92C1035.42 1164.61 1024.63 1172.63 1011.73 1177.98C999.111 1183.33 985.092 1186 969.67 1186C947.8 1186 928.173 1181.22 910.788 1171.65C893.684 1162.08 880.226 1148.57 870.412 1131.12C860.879 1113.67 856.112 1093.41 856.112 1070.33C856.112 1047.25 860.879 1027.13 870.412 1009.96C880.226 992.508 893.684 978.999 910.788 969.43C928.173 959.861 947.8 955.077 969.67 955.077C984.251 955.077 997.569 957.61 1009.63 962.676C1021.96 967.742 1032.62 975.2 1041.59 985.05V957.61H1094.16ZM975.559 1140.83C994.906 1140.83 1010.89 1134.36 1023.51 1121.41C1036.12 1108.46 1042.43 1091.44 1042.43 1070.33C1042.43 1049.22 1036.12 1032.19 1023.51 1019.25C1010.89 1006.3 994.906 999.826 975.559 999.826C956.212 999.826 940.229 1006.3 927.612 1019.25C915.275 1032.19 909.106 1049.22 909.106 1070.33C909.106 1091.44 915.275 1108.46 927.612 1121.41C940.229 1134.36 956.212 1140.83 975.559 1140.83Z" fill="white"/>
<path d="M1167.38 990.538C1182.53 966.897 1209.16 955.077 1247.3 955.077V1005.31C1242.81 1004.47 1238.74 1004.05 1235.1 1004.05C1214.63 1004.05 1198.65 1010.1 1187.15 1022.2C1175.66 1034.02 1169.91 1051.19 1169.91 1073.7V1183.04H1117.33V957.61H1167.38V990.538Z" fill="white"/>
<path d="M1475.74 957.61V1183.04H1425.69V1153.92C1417 1164.61 1406.2 1172.63 1393.3 1177.98C1380.69 1183.33 1366.67 1186 1351.25 1186C1329.38 1186 1309.75 1181.22 1292.36 1171.65C1275.26 1162.08 1261.8 1148.57 1251.99 1131.12C1242.45 1113.67 1237.69 1093.41 1237.69 1070.33C1237.69 1047.25 1242.45 1027.13 1251.99 1009.96C1261.8 992.508 1275.26 978.999 1292.36 969.43C1309.75 959.861 1329.38 955.077 1351.25 955.077C1365.83 955.077 1379.14 957.61 1391.2 962.676C1403.54 967.742 1414.19 975.2 1423.17 985.05V957.61H1475.74ZM1357.13 1140.83C1376.48 1140.83 1392.46 1134.36 1405.08 1121.41C1417.7 1108.46 1424.01 1091.44 1424.01 1070.33C1424.01 1049.22 1417.7 1032.19 1405.08 1019.25C1392.46 1006.3 1376.48 999.826 1357.13 999.826C1337.79 999.826 1321.8 1006.3 1309.19 1019.25C1296.85 1032.19 1290.68 1049.22 1290.68 1070.33C1290.68 1091.44 1296.85 1108.46 1309.19 1121.41C1321.8 1134.36 1337.79 1140.83 1357.13 1140.83Z" fill="white"/>
<path d="M574.549 1186C551.277 1186 530.388 1181.07 511.882 1171.22C493.376 1161.37 478.936 1147.72 468.562 1130.27C458.187 1112.54 453 1092.56 453 1070.33C453 1048.09 458.187 1028.25 468.562 1010.8C478.936 993.353 493.236 979.703 511.461 969.852C529.967 960.002 550.997 955.077 574.549 955.077C596.7 955.077 616.047 959.58 632.59 968.586C649.414 977.592 662.031 990.538 670.443 1007.42L630.067 1031.07C623.618 1020.65 615.486 1012.91 605.673 1007.85C596.139 1002.5 585.625 999.826 574.129 999.826C554.501 999.826 538.239 1006.3 525.341 1019.25C512.443 1031.91 505.994 1048.94 505.994 1070.33C505.994 1091.72 512.303 1108.88 524.92 1121.83C537.818 1134.5 554.221 1140.83 574.129 1140.83C585.625 1140.83 596.139 1138.3 605.673 1133.23C615.486 1127.88 623.618 1120 630.067 1109.59L670.443 1133.23C661.751 1150.12 648.993 1163.2 632.17 1172.49C615.627 1181.5 596.42 1186 574.549 1186Z" fill="white"/>
<path d="M739.848 977.638C755.456 964.033 790.573 927.548 799.199 897.658C817.681 833.963 746.215 892.092 739.848 977.638ZM771.885 1124.2C800.431 1128.94 839.655 1092.04 856.906 1054.32C868.201 1029.79 913.176 1046.07 901.881 1071.84C870.871 1142.75 808.44 1191.81 754.429 1182.12C683.989 1169.76 672.078 1068.54 674.953 1013.51C677.623 966.301 690.972 914.561 720.339 865.707C788.314 752.333 909.89 849.01 830.414 960.735C805.36 995.984 774.555 1025.87 734.714 1046.07C732.661 1069.78 743.75 1119.66 771.885 1124.2Z" fill="white"/>
<path d="M1523.77 1134.48C1528.32 1134.48 1532.42 1135.54 1536.09 1137.66C1539.81 1139.78 1542.72 1142.7 1544.83 1146.43C1546.94 1150.12 1548 1154.21 1548 1158.73C1548 1163.24 1546.92 1167.39 1544.77 1171.16C1542.61 1174.89 1539.67 1177.84 1535.96 1180.01C1532.24 1182.17 1528.13 1183.25 1523.64 1183.25C1519.14 1183.25 1515.03 1182.17 1511.32 1180.01C1507.65 1177.84 1504.73 1174.89 1502.58 1171.16C1500.47 1167.43 1499.41 1163.33 1499.41 1158.87C1499.41 1154.4 1500.47 1150.3 1502.58 1146.57C1504.73 1142.84 1507.67 1139.89 1511.39 1137.73C1515.1 1135.56 1519.23 1134.48 1523.77 1134.48ZM1523.64 1180.14C1527.58 1180.14 1531.16 1179.2 1534.37 1177.31C1537.58 1175.42 1540.11 1172.84 1541.94 1169.57C1543.82 1166.3 1544.77 1162.69 1544.77 1158.73C1544.77 1154.77 1543.85 1151.18 1542.01 1147.95C1540.22 1144.73 1537.72 1142.19 1534.51 1140.35C1531.34 1138.51 1527.77 1137.59 1523.77 1137.59C1519.83 1137.59 1516.23 1138.53 1512.97 1140.42C1509.76 1142.31 1507.23 1144.89 1505.4 1148.16C1503.56 1151.38 1502.65 1154.95 1502.65 1158.87C1502.65 1162.78 1503.56 1166.37 1505.4 1169.64C1507.23 1172.87 1509.76 1175.42 1512.97 1177.31C1516.18 1179.2 1519.74 1180.14 1523.64 1180.14ZM1536.09 1154.45C1536.09 1156.52 1535.59 1158.29 1534.58 1159.76C1533.57 1161.24 1532.15 1162.3 1530.31 1162.94L1536.58 1172.68H1531.83L1526.11 1163.84H1518.61V1172.68H1513.93V1145.05H1524.94C1528.39 1145.05 1531.09 1145.9 1533.07 1147.61C1535.08 1149.31 1536.09 1151.59 1536.09 1154.45ZM1524.6 1159.97C1526.8 1159.97 1528.5 1159.49 1529.69 1158.52C1530.93 1157.55 1531.55 1156.2 1531.55 1154.45C1531.55 1152.7 1530.93 1151.36 1529.69 1150.44C1528.5 1149.47 1526.8 1148.99 1524.6 1148.99H1518.54V1159.97H1524.6Z" fill="white"/>
<defs>
<linearGradient id="paint0_linear_33_822" x1="31.5" y1="-3.00196e-05" x2="2000" y2="2000" gradientUnits="userSpaceOnUse">
<stop stop-color="#849BC3"/>
<stop offset="1" stop-color="#1B329A"/>
</linearGradient>
</defs>
</svg>
