<svg width="32" height="32" viewBox="0 0 32 32" fill="none" xmlns="http://www.w3.org/2000/svg">
<path opacity="0.3" d="M26.2295 2.18198C28.381 1.90089 30.1543 3.67496 29.8731 5.82651C29.4617 8.97184 28.3314 14.3145 25.1377 17.7582C24.1217 18.8536 22.8929 19.8647 21.6309 20.764L22.001 23.348C22.1048 24.0749 21.86 24.8092 21.3408 25.3285L17.0987 29.5707C15.7392 30.9301 13.411 30.1543 13.1387 28.2513L12.5723 24.2914L12.5791 24.2884C12.2168 24.1134 11.8785 23.8798 11.586 23.5873L8.4678 20.4691C8.17518 20.1764 7.94059 19.8384 7.76565 19.4759L7.76467 19.4828L3.80471 18.9173C1.90166 18.6452 1.12533 16.3169 2.4844 14.9574L6.72756 10.7142C7.2468 10.1952 7.98027 9.95128 8.70705 10.055L11.292 10.4232C12.1911 9.16157 13.2008 7.93308 14.2959 6.91733C17.7396 3.72339 23.0842 2.59337 26.2295 2.18198Z" fill="#4B4040"/>
<path d="M7.90558 24.1492L4.13434 27.9205M5.07715 21.3208L3.19153 23.2064M10.734 26.9777L8.84838 28.8633" stroke="#4B4040" stroke-width="2" stroke-linecap="round"/>
<path d="M18.2761 10.0072C17.2347 11.0486 17.2347 12.737 18.2761 13.7784C19.3175 14.8198 21.006 14.8198 22.0474 13.7784C23.0888 12.737 23.0888 11.0486 22.0474 10.0072C21.006 8.9658 19.3175 8.9658 18.2761 10.0072Z" fill="#4B4040"/>
</svg>
